<?xml version="1.0" encoding="utf-8"?>
<!-- Generator: Adobe Illustrator 21.1.0, SVG Export Plug-In . SVG Version: 6.00 Build 0)  -->
<svg version="1.1" id="Layer_1" xmlns="http://www.w3.org/2000/svg" xmlns:xlink="http://www.w3.org/1999/xlink" x="0px" y="0px"
	 viewBox="0 0 840.6 324.6" style="enable-background:new 0 0 840.6 324.6;" xml:space="preserve">
<style type="text/css">
	.st0{fill:none;}
	.st1{fill:#FFFFFF;}
	.st2{fill:#FFFEFF;}
	.st3{font-family:'BebasNeue';}
	.st4{font-size:99.4738px;}
	.st5{letter-spacing:1;}
	.st6{font-family:'HelveticaNeue-Thin';}
	.st7{font-size:18px;}
</style>
<g id="LINEDART">
	<polygon class="st0" points="146.9,163.6 265,319.6 281.1,319.6 281.1,5 266.9,5 	"/>
	<polygon class="st0" points="145.9,163.3 265.6,5.1 222.1,5.1 123.8,134.9 145.6,163.5 123.8,192.3 220.2,319.6 263.7,319.6 
		145.6,163.6 	"/>
	<polygon class="st0" points="65.7,269.1 20.9,269.1 100.9,163.5 19.9,57.3 64.6,57.3 123.2,134.1 220.9,5 5,5 5,319.6 219,319.6 
		123.2,193.1 	"/>
	<rect x="286.1" y="5" class="st0" width="549.5" height="111.5"/>
	<rect x="286.1" y="121.5" class="st0" width="549.5" height="198.1"/>
	<path class="st1" d="M0,0v324.6h840.6V0H0z M281.1,319.6H265l2.6,3.4h-46l-0.1-0.2l-2.4-3.2H5V5h215.9l0.7-1h46L266.9,5h14.2
		L281.1,319.6z M835.6,319.6H286.1V121.5h549.5L835.6,319.6z M835.6,116.5H286.1V5h549.5L835.6,116.5z"/>
	<polygon class="st1" points="222.1,322 265.5,322 263.7,319.6 220.2,319.6 	"/>
	<polygon class="st1" points="123.8,134.9 102.1,163.6 123.8,192.3 145.6,163.5 	"/>
	<polygon class="st1" points="19.9,57.3 100.9,163.5 20.9,269.1 65.7,269.1 123.2,193.1 100.9,163.6 101.1,163.3 123.2,134.1 
		64.6,57.3 	"/>
	<path class="st2" d="M266.9,5l0.7-0.9h-46l-0.7,1l-97.7,129.1l-22.1,29.2l-0.2,0.3l22.3,29.5L219,319.6l2.4,3.2l0.1,0.2h46
		l-2.6-3.4l-118.1-156L266.9,5z M263.7,319.6l1.8,2.4h-43.5l-1.8-2.4l-96.4-127.3l-21.7-28.7l21.7-28.7L222.1,5.1h43.5L145.9,163.3
		l-0.2,0.3L263.7,319.6z"/>
</g>
<text transform="matrix(1 0 0 1 313.4619 97.0874)" class="st1 st3 st4 st5">Neal Shepherd</text>
<rect x="302" y="137" class="st0" width="521" height="166"/>
<text transform="matrix(1 0 0 1 304.5264 149.8516)"><tspan x="0" y="0" class="st1 st6 st7">Neal brings an array of education and experience to the Dixie Techni</tspan><tspan x="509.6" y="0" class="st1 st6 st7">-</tspan><tspan x="7.7" y="21.6" class="st1 st6 st7">cal College He graduated from Dixie Junior College with an Associ</tspan><tspan x="501.9" y="21.6" class="st1 st6 st7">-</tspan><tspan x="17.6" y="43.2" class="st1 st6 st7">ates Degree, and Southern Utah State College with a Bachelor’s </tspan><tspan x="14.6" y="64.8" class="st1 st6 st7">Degree. He served with the Utah Highway Patrol for several years </tspan><tspan x="1.4" y="86.4" class="st1 st6 st7">prior to being the District Manager for Arrow Automotive. Neal owned </tspan><tspan x="1.2" y="108" class="st1 st6 st7">and operated a trucking company in the St. George area making him </tspan><tspan x="45.5" y="129.6" class="st1 st6 st7">a perfect fit for the Dixie Technical College CDL program.</tspan></text>
</svg>
