<?xml version="1.0" encoding="utf-8"?>
<!-- Generator: Adobe Illustrator 21.1.0, SVG Export Plug-In . SVG Version: 6.00 Build 0)  -->
<svg version="1.1" id="Layer_1" xmlns="http://www.w3.org/2000/svg" xmlns:xlink="http://www.w3.org/1999/xlink" x="0px" y="0px"
	 viewBox="0 0 840.6 324.6" style="enable-background:new 0 0 840.6 324.6;" xml:space="preserve">
<style type="text/css">
	.st0{display:none;}
	.st1{fill:none;}
	.st2{fill:#FFFFFF;}
	.st3{fill:#FFFEFF;}
	.st4{font-family:'BebasNeue';}
	.st5{font-size:99.4738px;}
	.st6{letter-spacing:1;}
	.st7{font-family:'HelveticaNeue-Thin';}
	.st8{font-size:14px;}
</style>
<rect x="-52" y="-23" class="st0" width="924" height="375"/>
<g id="LINEDART">
	<polygon class="st1" points="146.9,163.6 265,319.6 281.1,319.6 281.1,5 266.9,5 	"/>
	<polygon class="st1" points="145.9,163.3 265.6,5.1 222.1,5.1 123.8,134.9 145.6,163.5 123.8,192.3 220.2,319.6 263.7,319.6 
		145.6,163.6 	"/>
	<polygon class="st1" points="65.7,269.1 20.9,269.1 100.9,163.5 19.9,57.3 64.6,57.3 123.2,134.1 220.9,5 5,5 5,319.6 219,319.6 
		123.2,193.1 	"/>
	<rect x="286.1" y="5" class="st1" width="549.5" height="111.5"/>
	<rect x="286.1" y="121.5" class="st1" width="549.5" height="198.1"/>
	<path class="st2" d="M0,0v324.6h840.6V0H0z M281.1,319.6H265l2.6,3.4h-46l-0.1-0.2l-2.4-3.2H5V5h215.9l0.7-1h46L266.9,5h14.2
		L281.1,319.6z M835.6,319.6H286.1V121.5h549.5L835.6,319.6z M835.6,116.5H286.1V5h549.5L835.6,116.5z"/>
	<polygon class="st2" points="222.1,322 265.5,322 263.7,319.6 220.2,319.6 	"/>
	<polygon class="st2" points="123.8,134.9 102.1,163.6 123.8,192.3 145.6,163.5 	"/>
	<polygon class="st2" points="19.9,57.3 100.9,163.5 20.9,269.1 65.7,269.1 123.2,193.1 100.9,163.6 101.1,163.3 123.2,134.1 
		64.6,57.3 	"/>
	<path class="st3" d="M266.9,5l0.7-0.9h-46l-0.7,1l-97.7,129.1l-22.1,29.2l-0.2,0.3l22.3,29.5L219,319.6l2.4,3.2l0.1,0.2h46
		l-2.6-3.4l-118.1-156L266.9,5z M263.7,319.6l1.8,2.4h-43.5l-1.8-2.4l-96.4-127.3l-21.7-28.7l21.7-28.7L222.1,5.1h43.5L145.9,163.3
		l-0.2,0.3L263.7,319.6z"/>
</g>
<text transform="matrix(1 0 0 1 313.4619 97.0874)" class="st2 st4 st5 st6">Steve Carwell</text>
<rect x="302" y="137" class="st1" width="521" height="166"/>
<text transform="matrix(1 0 0 1 312.0918 146.9961)"><tspan x="0" y="0" class="st2 st7 st8">Steve Carwell, (BSEE), has spent several decades in various executive positions in the </tspan><tspan x="-7" y="16.8" class="st2 st7 st8">areospace, medical devices, industrial products and sporting goods industries. His man</tspan><tspan x="502.8" y="16.8" class="st2 st7 st8">-</tspan><tspan x="-5.8" y="33.6" class="st2 st7 st8">agement experience includes serving as CEO of a publicly traded medical device manu</tspan><tspan x="501.7" y="33.6" class="st2 st7 st8">-</tspan><tspan x="-0.6" y="50.4" class="st2 st7 st8">facturer as well as working for 3 Fortune 500 companies. He eventually founded Jade</tspan><tspan x="496.5" y="50.4" class="st2 st7 st8">-</tspan><tspan x="12.2" y="67.2" class="st2 st7 st8">stone Consulting where he worked with client companies throughout the U.S. and </tspan><tspan x="-4.3" y="84" class="st2 st7 st8">abroad. He has a proven track record as CFO, International Business Manager, Director </tspan><tspan x="2.3" y="100.8" class="st2 st7 st8">of Sales &amp; Market Development, and Director of Operations with experience in Quality </tspan><tspan x="-5" y="117.6" class="st2 st7 st8">Control, Process Engineering, Project Management, ISO Regulatory Compliance, OSHA </tspan><tspan x="-9.8" y="134.4" class="st2 st7 st8">&amp; FDA Compliance, Domestic and International Sales, Organizational Development, Tech</tspan><tspan x="505.7" y="134.4" class="st2 st7 st8">-</tspan><tspan x="86.1" y="151.2" class="st2 st7 st8">nical Manufacturing and Lean Six Sigma Implementation.</tspan></text>
</svg>
