<?xml version="1.0" encoding="utf-8"?>
<!-- Generator: Adobe Illustrator 21.1.0, SVG Export Plug-In . SVG Version: 6.00 Build 0)  -->
<svg version="1.1" id="Layer_1" xmlns="http://www.w3.org/2000/svg" xmlns:xlink="http://www.w3.org/1999/xlink" x="0px" y="0px"
	 viewBox="0 0 655 95" style="enable-background:new 0 0 655 95;" xml:space="preserve">
<style type="text/css">
	.st0{fill:#8C7DCC;}
	.st1{fill:#53358C;}
	.st2{fill:#593E9B;}
	.st3{fill:#928AC1;}
	.st4{fill:none;}
	.st5{fill:#6651A8;}
	.st6{fill:#6D5AA6;}
	.st7{fill:#7769B2;}
</style>
<title>Health-cluster-red-12</title>
<polygon class="st0" points="471.7,0 572.9,0 561.4,66.5 469,66.4 "/>
<polygon class="st1" points="0,88.8 76,66.3 91.1,0 0,0 "/>
<polygon class="st2" points="70,0 60.5,70.9 186.8,69.8 206.9,0 "/>
<polygon class="st3" points="550.4,66.5 655,84.2 655,0 548,0 "/>
<rect class="st4" width="561.3" height="95"/>
<polygon class="st5" points="186.8,69.8 272.4,65.8 278.3,0 188.6,0 "/>
<polygon class="st6" points="272.4,65.8 379.8,62 353.5,-2.6 268.6,-1.2 "/>
<polygon class="st7" points="349.8,-2.5 480.7,0.2 475.5,66.4 354.8,63.1 "/>
</svg>
