<?xml version="1.0" encoding="utf-8"?>
<!-- Generator: Adobe Illustrator 22.1.0, SVG Export Plug-In . SVG Version: 6.00 Build 0)  -->
<svg version="1.1" id="Layer_1" xmlns="http://www.w3.org/2000/svg" xmlns:xlink="http://www.w3.org/1999/xlink" x="0px" y="0px"
	 viewBox="0 0 552.5 319.6" style="enable-background:new 0 0 552.5 319.6;" xml:space="preserve">
<style type="text/css">
	.st0{display:none;}
	.st1{fill:none;stroke:#FFFFFF;stroke-width:3;stroke-miterlimit:10;}
	.st2{fill:#FFFFFF;}
	.st3{font-family:'BebasNeueBook';}
	.st4{font-size:132.7463px;}
	.st5{fill:none;}
	.st6{font-family:'HelveticaNeue-Thin';}
	.st7{font-size:24px;}
</style>
<rect x="-27" y="-29" class="st0" width="608" height="398"/>
<g id="LINEDART">
	<rect x="1.5" y="1.5" class="st1" width="549.5" height="316.6"/>
	<line class="st1" x1="1.5" y1="118" x2="551" y2="118"/>
</g>
<text transform="matrix(1 0 0 1 13.75 104.9087)" class="st2 st3 st4">curt crofts</text>
<rect x="13.8" y="130" class="st5" width="525" height="173"/>
<text transform="matrix(1 0 0 1 18.9562 152.7357)" class="st2 st6 st7">Curt has been in the construction trades for 25 plus </text>
<text transform="matrix(1 0 0 1 40.6562 181.5356)" class="st2 st6 st7">years.  He has experience in framing, concrete, </text>
<text transform="matrix(1 0 0 1 34.3562 210.3357)" class="st2 st6 st7">finish work, electrical and HVAC. Curt joins  Dixie </text>
<text transform="matrix(1 0 0 1 32.2562 239.1357)" class="st2 st6 st7">Technical College as the Director of Construction </text>
<text transform="matrix(1 0 0 1 24.5563 267.9357)" class="st2 st6 st7">Technology and is passionate about what he does </text>
<text transform="matrix(1 0 0 1 44.4562 296.7357)" class="st2 st6 st7">and is dedicated to helping students succeed.</text>
</svg>
