<?xml version="1.0" encoding="utf-8"?>
<!-- Generator: Adobe Illustrator 22.1.0, SVG Export Plug-In . SVG Version: 6.00 Build 0)  -->
<svg version="1.1" id="Layer_1" xmlns="http://www.w3.org/2000/svg" xmlns:xlink="http://www.w3.org/1999/xlink" x="0px" y="0px"
	 viewBox="0 0 552.5 319.6" style="enable-background:new 0 0 552.5 319.6;" xml:space="preserve">
<style type="text/css">
	.st0{display:none;}
	.st1{fill:none;stroke:#FFFFFF;stroke-width:3;stroke-miterlimit:10;}
	.st2{enable-background:new    ;}
	.st3{fill:#FFFFFF;}
	.st4{fill:none;}
	.st5{font-family:'HelveticaNeue-Light';}
	.st6{font-size:18px;}
</style>
<rect x="-27" y="-29" class="st0" width="608" height="398"/>
<title>KEVIN-PFUNDER-MOBILE</title>
<g id="LINEDART">
	<rect x="1.5" y="1.5" class="st1" width="549.5" height="316.6"/>
	<line class="st1" x1="1.5" y1="118" x2="551" y2="118"/>
</g>
<g class="st2">
	<path class="st3" d="M60.4,33.1v2.1h-6.1v-2.5c0-10.3-3.9-18.1-14.5-18.1s-14.5,7.7-14.5,18c0,23.7,35.2,24.1,35.2,51
		c0,14.1-6.1,24.4-21,24.4c-14.9,0-21-10.3-21-24.4v-5h6.1V84c0,10.5,4,18,14.8,18c10.7,0,14.8-7.5,14.8-18
		c0-23.4-35.2-23.8-35.2-51c0-14.6,6.4-24.1,20.8-24.2C54.4,8.8,60.4,19.1,60.4,33.1z"/>
	<path class="st3" d="M77.3,61.3v45.8h-6.4V9.6h6.4v45.8h30.4V9.6h6.5v97.5h-6.5V61.3H77.3z"/>
	<path class="st3" d="M134.7,85.5l-4.9,21.6H124l21.3-97.7h9.3l21.7,97.7h-6.4l-4.9-21.6H134.7z M135.7,80h28.4l-14.4-63.1L135.7,80
		z"/>
	<path class="st3" d="M209.5,107.1h-8.9L184.8,9.6h6.3l14.6,88.9L220,10h6.8l13.7,88.2l14.1-88.6h5.7l-15.6,97.5h-8.4l-13.1-79.8
		L209.5,107.1z"/>
	<path class="st3" d="M276,107.1h-5.9V9.6h8.4l29.3,82.3V9.6h5.9v97.5h-7.1L276,20.2V107.1z"/>
	<path class="st3" d="M366.7,9.6c14.6,0,19.9,7.2,19.9,20.8v5.6c0,10.6-2.9,17.1-12.8,19.2c10.6,2.1,14.6,9.9,14.6,20.9v8.5
		c0,14.1-6.4,22.6-21.3,22.6h-20.9V9.6H366.7z M363.5,52.6c11.4,0,16.7-3.1,16.7-15.5v-6.3c0-10.2-3.2-15.5-13.7-15.5h-13.9v37.2
		H363.5z M367.1,101.3c10.7,0,14.9-6,14.9-16.9v-8.8c0-12.7-5.7-17.1-17.3-17.1h-12.1v42.8H367.1z"/>
	<path class="st3" d="M408.2,85.5l-4.9,21.6h-5.9l21.3-97.7h9.3l21.7,97.7h-6.4l-4.9-21.6H408.2z M409.2,80h28.4l-14.4-63.1
		L409.2,80z"/>
	<path class="st3" d="M466,9.6v97.5h-6.4V9.6H466z"/>
	<path class="st3" d="M483,107.1h-5.9V9.6h8.4l29.3,82.3V9.6h5.9v97.5h-7.1L483,20.2V107.1z"/>
</g>
<rect x="13.8" y="130" class="st4" width="525" height="173"/>
<text transform="matrix(1 0 0 1 218.7314 142.8516)" class="st3 st5 st6">TO BE ADDED</text>
</svg>
