<?xml version="1.0" encoding="utf-8"?>
<!-- Generator: Adobe Illustrator 22.1.0, SVG Export Plug-In . SVG Version: 6.00 Build 0)  -->
<svg version="1.1" id="Layer_1" xmlns="http://www.w3.org/2000/svg" xmlns:xlink="http://www.w3.org/1999/xlink" x="0px" y="0px"
	 viewBox="0 0 840.6 324.6" style="enable-background:new 0 0 840.6 324.6;" xml:space="preserve">
<style type="text/css">
	.st0{display:none;}
	.st1{fill:none;}
	.st2{fill:#FFFFFF;}
	.st3{fill:#FFFEFF;}
	.st4{enable-background:new    ;}
	.st5{font-family:'HelveticaNeue-Thin';}
	.st6{font-size:18px;}
</style>
<rect x="-52" y="-23" class="st0" width="924" height="375"/>
<g id="LINEDART">
	<polygon class="st1" points="146.9,163.6 265,319.6 281.1,319.6 281.1,5 266.9,5 	"/>
	<polygon class="st1" points="145.9,163.3 265.6,5.1 222.1,5.1 123.8,134.9 145.6,163.5 123.8,192.3 220.2,319.6 263.7,319.6 
		145.6,163.6 	"/>
	<polygon class="st1" points="65.7,269.1 20.9,269.1 100.9,163.5 19.9,57.3 64.6,57.3 123.2,134.1 220.9,5 5,5 5,319.6 219,319.6 
		123.2,193.1 	"/>
	<rect x="286.1" y="5" class="st1" width="549.5" height="111.5"/>
	<rect x="286.1" y="121.5" class="st1" width="549.5" height="198.1"/>
	<path class="st2" d="M0,0v324.6h840.6V0H0z M281.1,319.6H265l2.6,3.4h-46l-0.1-0.2l-2.4-3.2H5V5h215.9l0.7-1h46l-0.7,1h14.2V319.6z
		 M835.6,319.6H286.1V121.5h549.5V319.6z M835.6,116.5H286.1V5h549.5V116.5z"/>
	<polygon class="st2" points="222.1,322 265.5,322 263.7,319.6 220.2,319.6 	"/>
	<polygon class="st2" points="123.8,134.9 102.1,163.6 123.8,192.3 145.6,163.5 	"/>
	<polygon class="st2" points="19.9,57.3 100.9,163.5 20.9,269.1 65.7,269.1 123.2,193.1 100.9,163.6 101.1,163.3 123.2,134.1 
		64.6,57.3 	"/>
	<path class="st3" d="M266.9,5l0.7-0.9h-46l-0.7,1l-97.7,129.1l-22.1,29.2l-0.2,0.3l22.3,29.5L219,319.6l2.4,3.2l0.1,0.2h46
		l-2.6-3.4l-118.1-156L266.9,5z M263.7,319.6l1.8,2.4H222l-1.8-2.4l-96.4-127.3l-21.7-28.7l21.7-28.7L222.1,5.1h43.5L145.9,163.3
		l-0.2,0.3L263.7,319.6z"/>
</g>
<g class="st4">
	<path class="st2" d="M362.2,39.9v1.8h-5.4v-2.2c0-9-3.4-15.9-12.7-15.9c-9.3,0-12.7,6.7-12.7,15.7c0,20.7,30.9,21.1,30.9,44.7
		c0,12.3-5.4,21.4-18.4,21.4s-18.4-9-18.4-21.4v-4.4h5.4v4.8c0,9.2,3.5,15.7,12.9,15.7s12.9-6.6,12.9-15.7
		c0-20.5-30.9-20.9-30.9-44.7c0-12.8,5.6-21.1,18.2-21.2C356.9,18.5,362.2,27.5,362.2,39.9z"/>
	<path class="st2" d="M377.9,64.5v40.1h-5.6V19.2h5.6v40.1h26.6V19.2h5.7v85.4h-5.7V64.5H377.9z"/>
	<path class="st2" d="M429.2,85.7l-4.3,18.9h-5.1l18.7-85.5h8.2l19,85.5H460l-4.3-18.9H429.2z M430,80.9h24.9l-12.6-55.3L430,80.9z"
		/>
	<path class="st2" d="M493.8,104.6H486l-13.8-85.4h5.5l12.8,77.8L503,19.6h6l12,77.2l12.3-77.6h5l-13.7,85.4h-7.3l-11.5-69.9
		L493.8,104.6z"/>
	<path class="st2" d="M553,104.6h-5.1V19.2h7.3l25.6,72.1V19.2h5.1v85.4h-6.2L553,28.5V104.6z"/>
	<path class="st2" d="M634.4,19.2c12.8,0,17.4,6.3,17.4,18.2v4.9c0,9.3-2.6,15-11.2,16.8c9.3,1.8,12.8,8.7,12.8,18.3v7.4
		c0,12.3-5.6,19.8-18.7,19.8h-18.3V19.2H634.4z M631.6,56.9c10,0,14.6-2.7,14.6-13.5v-5.5c0-8.9-2.8-13.5-12-13.5H622v32.6H631.6z
		 M634.7,99.5c9.4,0,13.1-5.2,13.1-14.8v-7.7c0-11.1-5-15-15.1-15H622v37.5H634.7z"/>
	<path class="st2" d="M671.7,85.7l-4.3,18.9h-5.1L681,19.1h8.2l19,85.5h-5.6l-4.3-18.9H671.7z M672.5,80.9h24.9l-12.6-55.3
		L672.5,80.9z"/>
	<path class="st2" d="M723.3,19.2v85.4h-5.6V19.2H723.3z"/>
	<path class="st2" d="M739.2,104.6H734V19.2h7.3L767,91.3V19.2h5.1v85.4h-6.2l-26.7-76.1V104.6z"/>
</g>
<rect x="302" y="137" class="st1" width="521" height="166"/>
<text transform="matrix(1 0 0 1 507.0605 149.8516)" class="st2 st5 st6">TO BE ADDED</text>
</svg>
