<svg id="Layer_1" data-name="Layer 1" xmlns="http://www.w3.org/2000/svg" viewBox="0 0 1016 325"><defs><style>.cls-1,.cls-2{fill:#2d2d2d;}.cls-1{opacity:0.06;}</style></defs><title>Program-info4</title><rect class="cls-1" x="2.63" y="3.38" width="1007.38" height="319.52"/><path class="cls-2" d="M61,32.5h15.3V37H71.15V64h-5V37H61Z"/><path class="cls-2" d="M83.21,32.5V56.8c0,2.25,1,3.06,2.56,3.06s2.57-.81,2.57-3.06V32.5H93v24c0,5-2.52,7.92-7.38,7.92s-7.38-2.88-7.38-7.92v-24Z"/><path class="cls-2" d="M96.39,32.5h5V64h-5Z"/><path class="cls-2" d="M103.5,32.5h15.3V37h-5.17V64h-4.95V37H103.5Z"/><path class="cls-2" d="M121,32.5h5V64h-5Z"/><path class="cls-2" d="M129.11,40.06c0-5,2.65-7.92,7.51-7.92s7.51,2.88,7.51,7.92V56.44c0,5-2.65,7.92-7.51,7.92s-7.51-2.88-7.51-7.92Zm4.94,16.69c0,2.25,1,3.11,2.57,3.11s2.57-.86,2.57-3.11v-17c0-2.25-1-3.11-2.57-3.11s-2.57.86-2.57,3.11Z"/><path class="cls-2" d="M151.83,41.19h-.09V64h-4.45V32.5h6.21l5,18.86h.09V32.5H163V64H157.9Z"/><path class="cls-2" d="M189.54,64h-5l-.85-5.71h-6.08L176.76,64h-4.55l5-31.5h7.25Zm-11.3-10H183l-2.34-15.93h-.09Z"/><path class="cls-2" d="M196.33,41.19h-.09V64h-4.45V32.5H198l5,18.86h.09V32.5h4.41V64h-5.08Z"/><path class="cls-2" d="M211.05,32.5h7.83c5,0,7.38,2.75,7.38,7.79V56.21c0,5-2.43,7.79-7.38,7.79h-7.83ZM216,37V59.5h2.79c1.57,0,2.52-.81,2.52-3.06V40.06c0-2.25-.95-3.06-2.52-3.06Z"/><path class="cls-2" d="M241.33,46.5h6.39V51h-6.39V64h-5V32.5h13.1V37h-8.15Z"/><path class="cls-2" d="M256.81,45.78h6.8v4.5h-6.8V59.5h8.55V64h-13.5V32.5h13.5V37h-8.55Z"/><path class="cls-2" d="M273.37,45.78h6.8v4.5h-6.8V59.5h8.55V64h-13.5V32.5h13.5V37h-8.55Z"/><path class="cls-2" d="M291.64,32.14c4.82,0,7.29,2.88,7.29,7.92v1h-4.68v-1.3c0-2.25-.9-3.11-2.47-3.11s-2.48.86-2.48,3.11,1,4,4.23,6.84c4.14,3.64,5.45,6.25,5.45,9.85,0,5-2.52,7.92-7.38,7.92s-7.38-2.88-7.38-7.92V54.51h4.68v2.24c0,2.25,1,3.07,2.56,3.07S294,59,294,56.75s-1-4-4.23-6.83c-4.14-3.65-5.45-6.26-5.45-9.86C284.35,35,286.83,32.14,291.64,32.14Z"/><path class="cls-2" d="M123.55,82.46c4.18.36,5.85,3.6,5.85,7.78V91h-2v-.81c0-3.37-1.26-5.85-4.68-5.85s-4.68,2.48-4.68,5.81c0,7.65,11.38,7.47,11.38,16.15,0,4.19-1.71,7.42-5.89,7.78v2.52h-1.76V114c-4.23-.31-5.94-3.55-5.94-7.78v-1.75h2v1.84c0,3.42,1.31,5.85,4.77,5.85s4.77-2.43,4.77-5.85C127.37,98.84,116,99,116,90.24c0-4.41,1.75-7.38,5.8-7.78v-2.7h1.76Z"/><path class="cls-2" d="M145.28,107v7h-2v-7H132.5v-1.94l10.44-22.63h2.34v22.68h2.66V107Zm-10.89-1.89h8.87V86.33Z"/><path class="cls-2" d="M152.17,114h-.68v-4h2v3.78l-1.3,3.6h-.9Z"/><path class="cls-2" d="M171.16,89.88v1c0,3.24-1.22,5.81-4.19,6.62,3.06.9,4.19,3.46,4.19,6.75v2.25c0,4.63-2.34,7.78-7.16,7.78s-7.15-3.15-7.15-7.78v-2.25c0-3.33,1.08-5.81,4.23-6.75-3.06-.86-4.23-3.29-4.23-6.62v-1c0-4.68,2.38-7.65,7.15-7.65S171.16,85.2,171.16,89.88Zm-12.24.05v1.3c0,3.56,1.75,5.4,5.08,5.4s5.09-1.84,5.09-5.4v-1.3c0-3.69-1.76-5.81-5.09-5.81S158.92,86.24,158.92,89.93Zm0,14.13v2.38c0,3.64,1.66,5.94,5.08,5.94s5-2.3,5.09-5.94v-2.38c0-3.69-1.67-5.54-5.09-5.54S158.92,100.37,158.92,104.06Z"/><path class="cls-2" d="M174.4,90.2c0-4.64,2.11-8,6.93-8s6.93,3.33,6.93,8v16.11c0,4.59-2.12,8-6.93,8s-6.93-3.37-6.93-8Zm2.07,16.2c0,3.46,1.39,6,4.86,6s4.86-2.52,4.86-6V90.06c0-3.42-1.4-5.94-4.86-5.94s-4.86,2.52-4.86,5.94Z"/><path class="cls-2" d="M203.11,84.39H191.54V82.46h13.68v1.89L196.36,114h-2.12Z"/><path class="cls-2" d="M210.71,110v4h-2v-4Z"/><path class="cls-2" d="M225.74,84.39H214.18V82.46h13.68v1.89L219,114h-2.11Z"/><path class="cls-2" d="M233.66,95.64c1.08-1.71,2.75-2.43,5.09-2.43,4.36,0,6.12,3.33,6.12,7.7v5.4c0,4.54-2,8-6.84,8s-6.8-3.42-6.8-8V104.6h2v1.8c0,3.37,1.35,5.93,4.77,5.93s4.81-2.56,4.81-5.93v-5.31c0-3.38-1.34-5.94-4.81-5.94a4.4,4.4,0,0,0-4.5,3.6v.54h-1.93l.81-16.83h11.83v1.93h-9.94Z"/><path class="cls-2" d="M1016,325H0V0H1016ZM6,319H1010V6H6Z"/><path class="cls-2" d="M444,40.29v4.09c0,5-2.43,7.79-7.38,7.79h-2.34V64h-4.95V32.5h7.29C441.55,32.5,444,35.25,444,40.29ZM434.26,37V47.67h2.34c1.57,0,2.43-.72,2.43-3V40c0-2.25-.86-3-2.43-3Z"/><path class="cls-2" d="M456.62,64a9.67,9.67,0,0,1-.45-3.87v-5c0-2.92-1-4-3.24-4h-1.71V64h-5V32.5h7.47c5.13,0,7.34,2.39,7.34,7.25v2.47c0,3.24-1,5.31-3.24,6.35v.09c2.47,1,3.28,3.37,3.28,6.66v4.85a9.36,9.36,0,0,0,.54,3.83Zm-5.4-27v9.68h1.94c1.84,0,3-.81,3-3.33V40.24c0-2.25-.77-3.24-2.52-3.24Z"/><path class="cls-2" d="M464,40.06c0-5,2.65-7.92,7.51-7.92S479,35,479,40.06V56.44c0,5-2.66,7.92-7.52,7.92S464,61.48,464,56.44Zm5,16.69c0,2.25,1,3.11,2.56,3.11S474,59,474,56.75v-17c0-2.25-1-3.11-2.57-3.11s-2.56.86-2.56,3.11Z"/><path class="cls-2" d="M489.61,46.45h6.93v10c0,5-2.52,7.92-7.38,7.92s-7.38-2.88-7.38-7.92V40.06c0-5,2.52-7.92,7.38-7.92s7.38,2.88,7.38,7.92v3.06h-4.68V39.75c0-2.25-1-3.11-2.57-3.11s-2.56.86-2.56,3.11v17c0,2.25,1,3.07,2.56,3.07s2.57-.82,2.57-3.07V51h-2.25Z"/><path class="cls-2" d="M510.08,64a9.67,9.67,0,0,1-.45-3.87v-5c0-2.92-1-4-3.24-4h-1.71V64h-4.95V32.5h7.47c5.13,0,7.34,2.39,7.34,7.25v2.47c0,3.24-1,5.31-3.24,6.35v.09c2.47,1,3.28,3.37,3.28,6.66v4.85a9.36,9.36,0,0,0,.54,3.83Zm-5.4-27v9.68h1.94c1.84,0,3-.81,3-3.33V40.24c0-2.25-.77-3.24-2.52-3.24Z"/><path class="cls-2" d="M533.84,64h-5L528,58.29h-6.07L521.06,64h-4.54l5-31.5h7.24ZM522.55,54h4.77L525,38.08h-.09Z"/><path class="cls-2" d="M546.58,54.87h.09L550,32.5h6.88V64H552.2V41.41h-.09L548.78,64H544.1l-3.6-22.27h-.09V64h-4.32V32.5H543Z"/><path class="cls-2" d="M567.46,32.5h4.95v27h8.14V64H567.46Z"/><path class="cls-2" d="M587.66,45.78h6.8v4.5h-6.8V59.5h8.55V64h-13.5V32.5h13.5V37h-8.55Z"/><path class="cls-2" d="M603.77,41.19h-.09V64h-4.45V32.5h6.21l5,18.86h.09V32.5h4.41V64h-5.08Z"/><path class="cls-2" d="M625.91,46.45h6.93v10c0,5-2.52,7.92-7.38,7.92s-7.38-2.88-7.38-7.92V40.06c0-5,2.52-7.92,7.38-7.92s7.38,2.88,7.38,7.92v3.06h-4.68V39.75c0-2.25-1-3.11-2.56-3.11S623,37.5,623,39.75v17c0,2.25,1,3.07,2.57,3.07s2.56-.82,2.56-3.07V51h-2.25Z"/><path class="cls-2" d="M634.6,32.5h15.3V37h-5.18V64h-5V37H634.6Z"/><path class="cls-2" d="M657,64h-5V32.5h5V46h5.62V32.5h5V64h-5V50.5H657Z"/><path class="cls-2" d="M207,217.8V222c0,5-2.52,7.92-7.38,7.92s-7.38-2.88-7.38-7.92V205.61c0-5,2.52-7.92,7.38-7.92s7.38,2.88,7.38,7.92v3.06h-4.68v-3.38c0-2.25-1-3.1-2.56-3.1s-2.57.85-2.57,3.1v17c0,2.25,1,3.06,2.57,3.06s2.56-.81,2.56-3.06v-4.5Z"/><path class="cls-2" d="M210,198.05h5v27h8.14v4.5H210Z"/><path class="cls-2" d="M241.28,229.55h-5l-.86-5.72h-6.07l-.86,5.72H224l5-31.5h7.24Zm-11.29-10h4.77l-2.34-15.93h-.09Z"/><path class="cls-2" d="M250.24,197.69c4.81,0,7.29,2.88,7.29,7.92v1h-4.68v-1.31c0-2.25-.9-3.1-2.48-3.1s-2.47.85-2.47,3.1,1,4,4.23,6.84c4.14,3.65,5.44,6.26,5.44,9.86,0,5-2.52,7.92-7.38,7.92s-7.38-2.88-7.38-7.92v-1.94h4.68v2.25c0,2.25,1,3.06,2.57,3.06s2.56-.81,2.56-3.06-1-4-4.23-6.84c-4.14-3.64-5.44-6.25-5.44-9.85C243,200.57,245.42,197.69,250.24,197.69Z"/><path class="cls-2" d="M267.07,197.69c4.81,0,7.29,2.88,7.29,7.92v1h-4.68v-1.31c0-2.25-.9-3.1-2.48-3.1s-2.47.85-2.47,3.1,1,4,4.23,6.84c4.14,3.65,5.44,6.26,5.44,9.86,0,5-2.52,7.92-7.38,7.92s-7.38-2.88-7.38-7.92v-1.94h4.68v2.25c0,2.25,1,3.06,2.57,3.06s2.56-.81,2.56-3.06-1-4-4.23-6.84c-4.14-3.64-5.44-6.25-5.44-9.85C259.78,200.57,262.25,197.69,267.07,197.69Z"/><path class="cls-2" d="M287.59,229.55a9.71,9.71,0,0,1-.45-3.87v-5c0-2.93-1-4-3.24-4h-1.71v12.83h-4.95v-31.5h7.47c5.13,0,7.33,2.38,7.33,7.24v2.48c0,3.24-1,5.31-3.24,6.34v.09c2.48,1,3.29,3.38,3.29,6.66v4.86a9.39,9.39,0,0,0,.53,3.83Zm-5.4-27v9.67h1.93c1.85,0,3-.81,3-3.33v-3.1c0-2.25-.76-3.24-2.52-3.24Z"/><path class="cls-2" d="M294.92,205.61c0-5,2.66-7.92,7.52-7.92s7.51,2.88,7.51,7.92V222c0,5-2.66,7.92-7.51,7.92s-7.52-2.88-7.52-7.92Zm4.95,16.69c0,2.25,1,3.11,2.57,3.11s2.56-.86,2.56-3.11v-17c0-2.25-1-3.1-2.56-3.1s-2.57.85-2.57,3.1Z"/><path class="cls-2" d="M312.74,205.61c0-5,2.66-7.92,7.52-7.92s7.51,2.88,7.51,7.92V222c0,5-2.65,7.92-7.51,7.92s-7.52-2.88-7.52-7.92Zm4.95,16.69c0,2.25,1,3.11,2.57,3.11s2.56-.86,2.56-3.11v-17c0-2.25-1-3.1-2.56-3.1s-2.57.85-2.57,3.1Z"/><path class="cls-2" d="M341.41,220.41h.09l3.33-22.36h6.88v31.5H347V207h-.09l-3.33,22.59h-4.68l-3.6-22.28h-.09v22.28h-4.32v-31.5h6.88Z"/><path class="cls-2" d="M367.23,229.55h-5v-31.5h5v13.5h5.63v-13.5h5v31.5h-5v-13.5h-5.63Z"/><path class="cls-2" d="M381.09,205.61c0-5,2.66-7.92,7.52-7.92s7.51,2.88,7.51,7.92V222c0,5-2.65,7.92-7.51,7.92s-7.52-2.88-7.52-7.92Zm5,16.69c0,2.25,1,3.11,2.57,3.11s2.56-.86,2.56-3.11v-17c0-2.25-1-3.1-2.56-3.1s-2.57.85-2.57,3.1Z"/><path class="cls-2" d="M404,198.05v24.3c0,2.25,1,3.06,2.57,3.06s2.56-.81,2.56-3.06v-24.3h4.68v24c0,5-2.52,7.92-7.38,7.92s-7.38-2.88-7.38-7.92v-24Z"/><path class="cls-2" d="M427.58,229.55a9.71,9.71,0,0,1-.45-3.87v-5c0-2.93-1-4-3.24-4h-1.71v12.83h-4.95v-31.5h7.47c5.13,0,7.33,2.38,7.33,7.24v2.48c0,3.24-1,5.31-3.24,6.34v.09c2.48,1,3.29,3.38,3.29,6.66v4.86a9.22,9.22,0,0,0,.54,3.83Zm-5.4-27v9.67h1.93c1.85,0,3-.81,3-3.33v-3.1c0-2.25-.76-3.24-2.52-3.24Z"/><path class="cls-2" d="M442,197.69c4.81,0,7.29,2.88,7.29,7.92v1h-4.68v-1.31c0-2.25-.9-3.1-2.48-3.1s-2.47.85-2.47,3.1,1,4,4.23,6.84c4.14,3.65,5.44,6.26,5.44,9.86,0,5-2.52,7.92-7.38,7.92s-7.38-2.88-7.38-7.92v-1.94h4.68v2.25c0,2.25,1,3.06,2.57,3.06s2.56-.81,2.56-3.06-1-4-4.23-6.84c-4.14-3.64-5.44-6.25-5.44-9.85C434.69,200.57,437.16,197.69,442,197.69Z"/><path class="cls-2" d="M806.45,32.14c4.81,0,7.29,2.88,7.29,7.92v1h-4.68v-1.3c0-2.25-.9-3.11-2.48-3.11s-2.47.86-2.47,3.11,1,4,4.23,6.84c4.14,3.64,5.45,6.25,5.45,9.85,0,5-2.53,7.92-7.39,7.92S799,61.48,799,56.44V54.51h4.68v2.24c0,2.25,1,3.07,2.56,3.07s2.56-.82,2.56-3.07-1-4-4.22-6.83c-4.15-3.65-5.45-6.26-5.45-9.86C799.16,35,801.63,32.14,806.45,32.14Z"/><path class="cls-2" d="M815.18,32.5h15.3V37H825.3V64h-4.95V37h-5.17Z"/><path class="cls-2" d="M847,64h-5l-.85-5.71H835L834.17,64h-4.55l5-31.5h7.25Zm-11.3-10h4.77l-2.34-15.93H838Z"/><path class="cls-2" d="M859.59,64a9.67,9.67,0,0,1-.45-3.87v-5c0-2.92-1-4-3.24-4h-1.71V64h-5V32.5h7.47c5.13,0,7.34,2.39,7.34,7.25v2.47c0,3.24-1,5.31-3.24,6.35v.09c2.47,1,3.28,3.37,3.28,6.66v4.85a9.36,9.36,0,0,0,.54,3.83Zm-5.4-27v9.68h1.94c1.84,0,3-.81,3-3.33V40.24c0-2.25-.77-3.24-2.52-3.24Z"/><path class="cls-2" d="M865.89,32.5h15.3V37H876V64h-4.95V37h-5.18Z"/><path class="cls-2" d="M890.33,32.5h7.83c5,0,7.38,2.75,7.38,7.79V56.21c0,5-2.43,7.79-7.38,7.79h-7.83Zm4.95,4.5V59.5h2.79c1.57,0,2.52-.81,2.52-3.06V40.06c0-2.25-1-3.06-2.52-3.06Z"/><path class="cls-2" d="M924.66,64h-5l-.86-5.71h-6.07L911.88,64h-4.54l5-31.5h7.24ZM913.37,54h4.77L915.8,38.08h-.09Z"/><path class="cls-2" d="M923.81,32.5h15.3V37h-5.18V64H929V37h-5.17Z"/><path class="cls-2" d="M946.22,45.78H953v4.5h-6.79V59.5h8.55V64h-13.5V32.5h13.5V37h-8.55Z"/><path class="cls-2" d="M674,229.75h-5l-.86-5.72h-6.07l-.86,5.72h-4.54l5-31.5h7.24Zm-11.29-10h4.77l-2.34-15.93H665Z"/><path class="cls-2" d="M690.94,206v4.1c0,5-2.43,7.78-7.38,7.78h-2.34v11.84h-5v-31.5h7.29C688.51,198.25,690.94,201,690.94,206Zm-9.72-3.28v10.66h2.34c1.57,0,2.43-.72,2.43-3v-4.72c0-2.25-.86-3-2.43-3Z"/><path class="cls-2" d="M707.9,206v4.1c0,5-2.43,7.78-7.38,7.78h-2.34v11.84h-4.95v-31.5h7.29C705.47,198.25,707.9,201,707.9,206Zm-9.72-3.28v10.66h2.34c1.58,0,2.43-.72,2.43-3v-4.72c0-2.25-.85-3-2.43-3Z"/><path class="cls-2" d="M710.2,198.25h4.95v27h8.14v4.5H710.2Z"/><path class="cls-2" d="M725.45,198.25h4.95v31.5h-4.95Z"/><path class="cls-2" d="M748.36,218v4.19c0,5-2.52,7.92-7.38,7.92s-7.38-2.88-7.38-7.92V205.81c0-5,2.52-7.92,7.38-7.92s7.38,2.88,7.38,7.92v3.06h-4.68v-3.38c0-2.25-1-3.1-2.57-3.1s-2.56.85-2.56,3.1v17c0,2.25,1,3.06,2.56,3.06s2.57-.81,2.57-3.06V218Z"/><path class="cls-2" d="M767.39,229.75h-5l-.86-5.72h-6.07l-.86,5.72h-4.54l5-31.5h7.24Zm-11.29-10h4.77l-2.34-15.93h-.09Z"/><path class="cls-2" d="M766.54,198.25h15.3v4.5h-5.18v27h-4.95v-27h-5.17Z"/><path class="cls-2" d="M784,198.25h4.94v31.5H784Z"/><path class="cls-2" d="M792.14,205.81c0-5,2.66-7.92,7.52-7.92s7.51,2.88,7.51,7.92v16.38c0,5-2.65,7.92-7.51,7.92s-7.52-2.88-7.52-7.92Zm5,16.69c0,2.25,1,3.11,2.57,3.11s2.56-.86,2.56-3.11v-17c0-2.25-1-3.1-2.56-3.1s-2.57.85-2.57,3.1Z"/><path class="cls-2" d="M814.86,206.93h-.09v22.82h-4.45v-31.5h6.21l5,18.85h.09V198.25H826v31.5h-5.08Z"/><path class="cls-2" d="M444.29,86a6.68,6.68,0,0,1-4.9,2.66v-1.8c3.1-.23,4.54-2.07,5.35-4.41h1.62V114h-2.07Z"/><path class="cls-2" d="M464.54,90.24c0,9.09-11.38,12.24-11.52,21.51v.36h11.25V114H451v-1.53c0-11.11,11.52-13.5,11.52-22.14,0-3.64-1.21-6.21-4.81-6.21s-4.73,2.7-4.73,6.08v2.16h-2v-2c0-4.54,1.94-8.1,6.8-8.1S464.54,85.65,464.54,90.24Z"/><path class="cls-2" d="M467.78,90.2c0-4.64,2.12-8,6.93-8s6.93,3.33,6.93,8v16.11c0,4.59-2.11,8-6.93,8s-6.93-3.37-6.93-8Zm2.07,16.2c0,3.46,1.4,6,4.86,6s4.86-2.52,4.86-6V90.06c0-3.42-1.39-5.94-4.86-5.94s-4.86,2.52-4.86,5.94Z"/><path class="cls-2" d="M484.93,90.2c0-4.64,2.11-8,6.93-8s6.93,3.33,6.93,8v16.11c0,4.59-2.12,8-6.93,8s-6.93-3.37-6.93-8ZM487,106.4c0,3.46,1.39,6,4.86,6s4.86-2.52,4.86-6V90.06c0-3.42-1.4-5.94-4.86-5.94S487,86.64,487,90.06Z"/><path class="cls-2" d="M518.23,99.2V114h-2.07V82.5h2.07V97.31H528V82.5h2.11V114H528V99.2Z"/><path class="cls-2" d="M540.32,82.5c4.82,0,6.75,2.66,6.75,7.11v2.75c0,3.69-1.44,5.8-4.54,6.52,3.24.72,4.54,3,4.54,6.44v4.9a7,7,0,0,0,.77,3.78h-2.16a7.39,7.39,0,0,1-.68-3.78v-5c0-4.18-2.29-5.35-5.89-5.35h-3.29V114h-2.07V82.5ZM539.15,98c3.69,0,5.85-1,5.85-5.27v-3c0-3.37-1.3-5.4-4.72-5.4h-4.46V98Z"/><path class="cls-2" d="M564.4,90.11v.67h-2V90c0-3.33-1.26-5.85-4.68-5.85s-4.68,2.48-4.68,5.81c0,7.65,11.38,7.78,11.38,16.47,0,4.54-2,7.87-6.79,7.87s-6.8-3.33-6.8-7.87v-1.62h2v1.75c0,3.38,1.31,5.8,4.77,5.8s4.77-2.42,4.77-5.8C562.37,99,551,98.84,551,90.06c0-4.72,2.07-7.78,6.7-7.83S564.4,85.56,564.4,90.11Z"/><path class="cls-2" d="M569.57,110v4h-2v-4Z"/><path class="cls-2" d="M586.13,86a6.68,6.68,0,0,1-4.9,2.66v-1.8c3.1-.23,4.54-2.07,5.35-4.41h1.62V114h-2.07Z"/><path class="cls-2" d="M606.88,89.88v1c0,3.24-1.22,5.81-4.19,6.62,3.06.9,4.19,3.46,4.19,6.75v2.25c0,4.63-2.34,7.78-7.16,7.78s-7.15-3.15-7.15-7.78v-2.25c0-3.33,1.08-5.81,4.23-6.75-3.06-.86-4.23-3.29-4.23-6.62v-1c0-4.68,2.38-7.65,7.15-7.65S606.88,85.2,606.88,89.88Zm-12.24.05v1.3c0,3.56,1.75,5.4,5.08,5.4s5.09-1.84,5.09-5.4v-1.3c0-3.69-1.76-5.81-5.09-5.81S594.64,86.24,594.64,89.93Zm0,14.13v2.38c0,3.64,1.66,5.94,5.08,5.94s5-2.3,5.09-5.94v-2.38c0-3.69-1.67-5.54-5.09-5.54S594.64,100.37,594.64,104.06Z"/><path class="cls-2" d="M627.8,114h-2.07L619.07,86.1V114h-1.84V82.5h3l6.61,27.86,6.57-27.86h3V114h-2V86Z"/><path class="cls-2" d="M639.82,90.2c0-4.59,2.11-8,6.88-8s7,3.38,7,8v16.11c0,4.59-2.12,8-7,8s-6.88-3.37-6.88-8Zm2.07,16.24c0,3.42,1.35,5.94,4.81,5.94s4.91-2.52,4.91-5.94V90.06c0-3.42-1.4-5.94-4.91-5.94s-4.81,2.52-4.81,5.94Z"/><path class="cls-2" d="M658.67,110v4h-2v-4Z"/><path class="cls-2" d="M175.54,281.6h-2.07l-6.66-27.85v27.89H165v-31.5h3L174.55,278l6.57-27.86h3v31.5h-2v-28Z"/><path class="cls-2" d="M187.55,257.84c0-4.59,2.12-8,6.89-8s7,3.38,7,8V274c0,4.59-2.11,8-7,8s-6.89-3.37-6.89-8Zm2.07,16.24c0,3.42,1.35,5.94,4.82,5.94s4.9-2.52,4.9-5.94V257.7c0-3.42-1.39-5.94-4.9-5.94s-4.82,2.52-4.82,5.94Z"/><path class="cls-2" d="M206.72,281.64h-1.89v-31.5h2.7l9.45,26.6v-26.6h1.89v31.5h-2.29l-9.86-28.08Z"/><path class="cls-2" d="M229.31,265h8.28v1.89h-8.28Z"/><path class="cls-2" d="M253.52,281.64V252h-6.43v-1.9H262V252h-6.39v29.6Z"/><path class="cls-2" d="M266.75,266.84v14.8h-2.07v-31.5h2.07V265h9.81V250.14h2.11v31.5h-2.11v-14.8Z"/><path class="cls-2" d="M284.25,274c0,3.37,1.26,6,4.73,6s4.72-2.61,4.72-6v-23.9h1.94V274c0,4.5-1.89,8-6.71,8s-6.75-3.46-6.75-8V250.14h2.07Z"/><path class="cls-2" d="M305.76,250.14c4.82,0,6.75,2.66,6.75,7.11V260c0,3.69-1.44,5.8-4.54,6.52,3.24.72,4.54,3,4.54,6.44v4.9a7,7,0,0,0,.77,3.78h-2.16a7.37,7.37,0,0,1-.68-3.78v-4.95c0-4.18-2.29-5.35-5.89-5.35h-3.29v14.08h-2.07v-31.5Zm-1.17,15.53c3.69,0,5.85-1,5.85-5.27v-3c0-3.37-1.3-5.39-4.72-5.39h-4.46v13.63Z"/><path class="cls-2" d="M329.84,257.75v.67h-2v-.81c0-3.33-1.26-5.85-4.68-5.85s-4.68,2.48-4.68,5.81c0,7.65,11.38,7.78,11.38,16.47,0,4.54-2,7.87-6.79,7.87s-6.8-3.33-6.8-7.87v-1.62h2v1.75c0,3.38,1.31,5.81,4.77,5.81s4.77-2.43,4.77-5.81c0-7.56-11.38-7.69-11.38-16.47,0-4.72,2.07-7.78,6.7-7.83S329.84,253.21,329.84,257.75Z"/><path class="cls-2" d="M353.87,257.84v16c0,4.68-2,8.05-6.93,8.05s-6.89-3.28-6.89-7.87v-.41h2v.5c0,3.42,1.4,5.89,4.86,5.89s4.91-2.52,4.91-6.25V266c-1,2.34-2.79,3.33-5.58,3.33-4.41,0-6.21-3.24-6.21-7.7v-3.82c0-4.63,2.11-8,6.93-8S353.87,253.21,353.87,257.84Zm-11.79-.14v3.83c0,3.42,1.39,5.94,4.86,5.94s4.86-2.52,4.86-5.94V257.7c0-3.42-1.4-5.94-4.86-5.94S342.08,254.28,342.08,257.7Z"/><path class="cls-2" d="M359.4,260.54v4h-2v-4Zm0,17.14v4h-2v-4Z"/><path class="cls-2" d="M362.87,257.84c0-4.63,2.11-8,6.93-8s6.93,3.34,6.93,8V274c0,4.59-2.12,8-6.93,8s-6.93-3.37-6.93-8Zm2.07,16.2c0,3.46,1.39,6,4.86,6s4.86-2.52,4.86-6V257.7c0-3.42-1.4-5.94-4.86-5.94s-4.86,2.52-4.86,5.94Z"/><path class="cls-2" d="M380,257.84c0-4.63,2.12-8,6.93-8s6.93,3.34,6.93,8V274c0,4.59-2.11,8-6.93,8s-6.93-3.37-6.93-8Zm2.07,16.2c0,3.46,1.4,6,4.86,6s4.86-2.52,4.86-6V257.7c0-3.42-1.39-5.94-4.86-5.94s-4.86,2.52-4.86,5.94Z"/><path class="cls-2" d="M404.18,265h8.28v1.89h-8.28Z"/><path class="cls-2" d="M435.32,274.67v7h-2v-7H422.54v-1.94L433,250.1h2.34v22.68H438v1.89Zm-10.89-1.89h8.86V254Z"/><path class="cls-2" d="M443.1,260.54v4h-2v-4Zm0,17.14v4h-2v-4Z"/><path class="cls-2" d="M446.57,257.84c0-4.63,2.11-8,6.93-8s6.93,3.34,6.93,8V274c0,4.59-2.12,8-6.93,8s-6.93-3.37-6.93-8Zm2.07,16.2c0,3.46,1.39,6,4.86,6s4.86-2.52,4.86-6V257.7c0-3.42-1.4-5.94-4.86-5.94s-4.86,2.52-4.86,5.94Z"/><path class="cls-2" d="M463.71,257.84c0-4.63,2.12-8,6.93-8s6.93,3.34,6.93,8V274c0,4.59-2.11,8-6.93,8s-6.93-3.37-6.93-8Zm2.07,16.2c0,3.46,1.4,6,4.86,6s4.86-2.52,4.86-6V257.7c0-3.42-1.39-5.94-4.86-5.94s-4.86,2.52-4.86,5.94Z"/><path class="cls-2" d="M811.81,107l-1.58,7h-1.89l6.89-31.54h3l7,31.54h-2.07l-1.57-7Zm.31-1.8h9.18l-4.63-20.39Z"/><path class="cls-2" d="M830.39,106.4c0,3.37,1.26,6,4.73,6s4.72-2.61,4.72-6V82.5h1.94v23.81c0,4.49-1.9,8-6.71,8s-6.75-3.47-6.75-8V82.5h2.07Z"/><path class="cls-2" d="M858.79,90.2v2.34h-2V90.06c0-3.37-1.3-5.94-4.76-5.94s-4.77,2.57-4.77,5.94v16.38c0,3.38,1.3,5.89,4.77,5.89s4.76-2.51,4.76-5.89V99.65h-4.18V97.76h6.17v8.55c0,4.54-2,8-6.8,8s-6.79-3.42-6.79-8V90.2c0-4.55,2-8,6.79-8S858.79,85.65,858.79,90.2Z"/><path class="cls-2" d="M864.23,106.4c0,3.37,1.26,6,4.73,6s4.72-2.61,4.72-6V82.5h1.94v23.81c0,4.49-1.9,8-6.71,8s-6.75-3.47-6.75-8V82.5h2.07Z"/><path class="cls-2" d="M892.44,90.11v.67h-2V90c0-3.33-1.26-5.85-4.68-5.85s-4.68,2.48-4.68,5.81c0,7.65,11.39,7.78,11.39,16.47,0,4.54-2,7.87-6.8,7.87s-6.79-3.33-6.79-7.87v-1.62h2v1.75c0,3.38,1.3,5.8,4.77,5.8s4.77-2.42,4.77-5.8C890.42,99,879,98.84,879,90.06c0-4.72,2.06-7.78,6.7-7.83S892.44,85.56,892.44,90.11Z"/><path class="cls-2" d="M901.13,114V84.39h-6.39V82.5h14.89v1.89H903.2V114Z"/><path class="cls-2" d="M925.16,86a6.7,6.7,0,0,1-4.91,2.66v-1.8c3.11-.23,4.55-2.07,5.36-4.41h1.62V114h-2.07Z"/><path class="cls-2" d="M945.32,90.2V91c0,3.11-1.49,5.58-4.19,6.53,2.84.85,4.19,3.28,4.19,6.39v2.43c0,4.59-2,8-6.8,8s-6.79-3.37-6.79-8v-1.8h2v1.89c0,3.42,1.3,6,4.77,6s4.77-2.52,4.77-6.12v-2.43c0-3.28-1.62-5.17-4.68-5.31h-2.12V96.63h2.21c2.83-.18,4.59-2.25,4.59-5.26V90.24c0-3.6-1.31-6.12-4.77-6.12s-4.77,2.52-4.77,5.94v1.26h-2V90.2c0-4.59,2-8,6.79-8S945.32,85.61,945.32,90.2Z"/><path class="cls-2" d="M751.42,244.4H732a4.13,4.13,0,0,0-4.12,4.12v33A4.13,4.13,0,0,0,732,285.6h24.73a4.13,4.13,0,0,0,4.12-4.12V253.85ZM734.08,265h16.48v4.12H734.08Zm20.6,12.36h-20.6v-4.12h20.6Zm-6.18-20.6v-10.3l10.31,10.3Z"/></svg>