<?xml version="1.0" encoding="utf-8"?>
<!-- Generator: Adobe Illustrator 22.1.0, SVG Export Plug-In . SVG Version: 6.00 Build 0)  -->
<svg version="1.1" id="Layer_1" xmlns="http://www.w3.org/2000/svg" xmlns:xlink="http://www.w3.org/1999/xlink" x="0px" y="0px"
	 viewBox="0 0 840.6 324.6" style="enable-background:new 0 0 840.6 324.6;" xml:space="preserve">
<style type="text/css">
	.st0{display:none;}
	.st1{fill:none;}
	.st2{fill:#FFFFFF;}
	.st3{fill:#FFFEFF;}
	.st4{font-family:'BebasNeue';}
	.st5{font-size:129.8102px;}
	.st6{font-family:'HelveticaNeue-Light';}
	.st7{font-size:22px;}
	.st8{display:none;fill:#FFFFFF;enable-background:new    ;}
	.st9{font-size:22.5024px;}
</style>
<rect x="-52" y="-23" class="st0" width="924" height="375"/>
<g id="LINEDART">
	<polygon class="st1" points="146.9,163.6 265,319.6 281.1,319.6 281.1,5 266.9,5 	"/>
	<polygon class="st1" points="145.9,163.3 265.6,5.1 222.1,5.1 123.8,134.9 145.6,163.5 123.8,192.3 220.2,319.6 263.7,319.6 
		145.6,163.6 	"/>
	<polygon class="st1" points="65.7,269.1 20.9,269.1 100.9,163.5 19.9,57.3 64.6,57.3 123.2,134.1 220.9,5 5,5 5,319.6 219,319.6 
		123.2,193.1 	"/>
	<rect x="286.1" y="5" class="st1" width="549.5" height="111.5"/>
	<rect x="286.1" y="121.5" class="st1" width="549.5" height="198.1"/>
	<path class="st2" d="M0,0v324.6h840.6V0H0z M281.1,319.6H265l2.6,3.4h-46l-0.1-0.2l-2.4-3.2H5V5h215.9l0.7-1h46l-0.7,1h14.2
		L281.1,319.6L281.1,319.6z M835.6,319.6H286.1V121.5h549.5V319.6z M835.6,116.5H286.1V5h549.5V116.5z"/>
	<polygon class="st2" points="222.1,322 265.5,322 263.7,319.6 220.2,319.6 	"/>
	<polygon class="st2" points="123.8,134.9 102.1,163.6 123.8,192.3 145.6,163.5 	"/>
	<polygon class="st2" points="19.9,57.3 100.9,163.5 20.9,269.1 65.7,269.1 123.2,193.1 100.9,163.6 101.1,163.3 123.2,134.1 
		64.6,57.3 	"/>
	<path class="st3" d="M266.9,5l0.7-0.9h-46l-0.7,1l-97.7,129.1l-22.1,29.2l-0.2,0.3l22.3,29.5L219,319.6l2.4,3.2l0.1,0.2h46
		l-2.6-3.4l-118.1-156L266.9,5z M263.7,319.6l1.8,2.4H222l-1.8-2.4l-96.4-127.3l-21.7-28.7l21.7-28.7L222.1,5.1h43.5L145.9,163.3
		l-0.2,0.3L263.7,319.6z"/>
</g>
<text transform="matrix(1 0 0 1 303.9014 106.207)" class="st2 st4 st5">curt crofts</text>
<rect x="302" y="138" class="st1" width="521" height="166"/>
<text transform="matrix(1 0 0 1 318.623 153.708)" class="st2 st6 st7">Curt has been in the construction trades for 25 plus </text>
<text transform="matrix(1 0 0 1 312.923 180.108)" class="st2 st6 st7">years.  He has experience in framing, concrete, finish </text>
<text transform="matrix(1 0 0 1 311.223 206.508)" class="st2 st6 st7">work, electrical and HVAC.  Curt joins Dixie Technical </text>
<text transform="matrix(1 0 0 1 321.0229 232.908)" class="st8 st6 st7">College as the Director of Construction Technology </text>
<text transform="matrix(1 0 0 1 350.823 259.308)" class="st2 st6 st7">and is passionate about what he does and is </text>
<text transform="matrix(1 0 0 1 375.423 285.708)" class="st2 st6 st7">dedicated to helping students succeed. </text>
<text transform="matrix(1 0 0 1 310.9256 232.9078)" class="st2 st6 st9">College as the manager of Construction Technology</text>
</svg>
