<?xml version="1.0" encoding="utf-8"?>
<!-- Generator: Adobe Illustrator 22.1.0, SVG Export Plug-In . SVG Version: 6.00 Build 0)  -->
<svg version="1.1" id="Layer_1" xmlns="http://www.w3.org/2000/svg" xmlns:xlink="http://www.w3.org/1999/xlink" x="0px" y="0px"
	 viewBox="0 0 840.6 324.6" style="enable-background:new 0 0 840.6 324.6;" xml:space="preserve">
<style type="text/css">
	.st0{display:none;}
	.st1{fill:none;}
	.st2{fill:#FFFFFF;}
	.st3{fill:#FFFEFF;}
	.st4{font-family:'BebasNeue';}
	.st5{font-size:140.3258px;}
	.st6{font-family:'HelveticaNeue-Light';}
	.st7{font-size:15px;}
	.st8{font-size:18px;}
</style>
<rect x="-52" y="-23" class="st0" width="924" height="375"/>
<g id="LINEDART">
	<polygon class="st1" points="146.9,163.6 265,319.6 281.1,319.6 281.1,5 266.9,5 	"/>
	<polygon class="st1" points="145.9,163.3 265.6,5.1 222.1,5.1 123.8,134.9 145.6,163.5 123.8,192.3 220.2,319.6 263.7,319.6 
		145.6,163.6 	"/>
	<polygon class="st1" points="65.7,269.1 20.9,269.1 100.9,163.5 19.9,57.3 64.6,57.3 123.2,134.1 220.9,5 5,5 5,319.6 219,319.6 
		123.2,193.1 	"/>
	<rect x="286.1" y="5" class="st1" width="549.5" height="111.5"/>
	<rect x="286.1" y="121.5" class="st1" width="549.5" height="198.1"/>
	<path class="st2" d="M0,0v324.6h840.6V0H0z M281.1,319.6H265l2.6,3.4h-46l-0.1-0.2l-2.4-3.2H5V5h215.9l0.7-1h46l-0.7,1h14.2
		L281.1,319.6L281.1,319.6z M835.6,319.6H286.1V121.5h549.5V319.6z M835.6,116.5H286.1V5h549.5V116.5z"/>
	<polygon class="st2" points="222.1,322 265.5,322 263.7,319.6 220.2,319.6 	"/>
	<polygon class="st2" points="123.8,134.9 102.1,163.6 123.8,192.3 145.6,163.5 	"/>
	<polygon class="st2" points="19.9,57.3 100.9,163.5 20.9,269.1 65.7,269.1 123.2,193.1 100.9,163.6 101.1,163.3 123.2,134.1 
		64.6,57.3 	"/>
	<path class="st3" d="M266.9,5l0.7-0.9h-46l-0.7,1l-97.7,129.1l-22.1,29.2l-0.2,0.3l22.3,29.5L219,319.6l2.4,3.2l0.1,0.2h46
		l-2.6-3.4l-118.1-156L266.9,5z M263.7,319.6l1.8,2.4H222l-1.8-2.4l-96.4-127.3l-21.7-28.7l21.7-28.7L222.1,5.1h43.5L145.9,163.3
		l-0.2,0.3L263.7,319.6z"/>
</g>
<text transform="matrix(1 0 0 1 313.1817 110.5)" class="st2 st4 st5">linda duke</text>
<rect x="296.3" y="134.9" class="st1" width="527.2" height="176.1"/>
<text transform="matrix(1 0 0 1 305.5186 145.61)"><tspan x="0" y="0" class="st2 st6 st7">After raising 5 children Linda returned to the workforce as a Certified Pharmacy </tspan><tspan x="9.4" y="18" class="st2 st6 st7">Technician.  She has been employed 10 years by Walgreens as a Pharmacy </tspan><tspan x="-3.1" y="36" class="st2 st6 st7">Technician AND worked for Dixie Technical College for 7 years as the Pharmacy </tspan><tspan x="-1" y="54" class="st2 st6 st7">Technician Program Coordinator.  She has loved every minute working with our </tspan><tspan x="2.8" y="72" class="st2 st6 st7">incredible students!  They have been her inspiration and motivation to do what </tspan><tspan x="191.4" y="90" class="st2 st6 st7">she does each day! </tspan><tspan x="20" y="108" class="st2 st6 st7">Dixie Technical College has the best faculty and staff!  They are driven by </tspan><tspan x="11" y="126" class="st2 st6 st7">excellence and passionate about the mission of technical education.  She is </tspan><tspan x="49.5" y="144" class="st2 st6 st7">honored and blessed to be a part of this institution and mission!</tspan></text>
<text transform="matrix(1 0 0 1 302.2469 156.3201)" class="st2 st6 st8">Matt was raised and attended school in Enterprise, Utah. He spent </text>
<text transform="matrix(1 0 0 1 304.1469 177.9201)" class="st2 st6 st8">ten years working in the retail distribution industry.  His passion for </text>
<text transform="matrix(1 0 0 1 304.4469 199.5201)" class="st2 st6 st8">CAD design and 3D printing led him to the Dixie Technical College </text>
<text transform="matrix(1 0 0 1 322.4469 221.1201)" class="st2 st6 st8">Drafting Program.  Upon earning his certificate, he worked for </text>
<text transform="matrix(1 0 0 1 323.4469 242.7201)" class="st2 st6 st8">several local firms and businesses.  Dixie Technical College is </text>
<text transform="matrix(1 0 0 1 297.2469 264.3201)" class="st2 st6 st8">thrilled to have Matt teaching MEchanical Drafting, using his passion </text>
<text transform="matrix(1 0 0 1 302.9469 285.9201)" class="st2 st6 st8">and knowledge to help students become successful CAD drafters. </text>
</svg>
