<?xml version="1.0" encoding="utf-8"?>
<!-- Generator: Adobe Illustrator 21.1.0, SVG Export Plug-In . SVG Version: 6.00 Build 0)  -->
<svg version="1.1" id="Layer_1" xmlns="http://www.w3.org/2000/svg" xmlns:xlink="http://www.w3.org/1999/xlink" x="0px" y="0px"
	 viewBox="0 0 552.5 319.6" style="enable-background:new 0 0 552.5 319.6;" xml:space="preserve">
<style type="text/css">
	.st0{fill:#FFFFFF;}
	.st1{font-family:'HelveticaNeue-Thin';}
	.st2{font-size:15px;}
	.st3{letter-spacing:-1;}
	.st4{fill:none;stroke:#FFFFFF;stroke-width:3;stroke-miterlimit:10;}
</style>
<title>KEVIN-PFUNDER-MOBILE</title>
<g id="TEXT">
	<text transform="matrix(1 0 0 1 27.55 142.14)" class="st0 st1 st2">Pfunder was born and </text>
	<text transform="matrix(1 0 0 1 169.82 142.14)" class="st0 st1 st2">r</text>
	<text transform="matrix(1 0 0 1 173.69 142.14)" class="st0 st1 st2">aised on a farm in Idaho </text>
	<text transform="matrix(1 0 0 1 327.17 142.14)" class="st0 st1 st2">F</text>
	<text transform="matrix(1 0 0 1 334.46 142.14)" class="st0 st1 st2">alls, the youngest of th</text>
	<text transform="matrix(1 0 0 1 475.09 142.14)" class="st0 st1 st2">r</text>
	<text transform="matrix(1 0 0 1 479.08 142.14)" class="st0 st1 st2">ee chil</text>
	<text transform="matrix(1 0 0 1 519.43 142.14)" class="st0 st1 st2">-</text>
	<text transform="matrix(1 0 0 1 16.19 160.14)" class="st0 st1 st2">d</text>
	<text transform="matrix(1 0 0 1 24.53 160.14)" class="st0 st1 st2">r</text>
	<text transform="matrix(1 0 0 1 28.52 160.14)" class="st0 st1 st2">en.  His older b</text>
	<text transform="matrix(1 0 0 1 123.94 160.14)" class="st0 st1 st2">r</text>
	<text transform="matrix(1 0 0 1 127.93 160.14)" class="st0 st1 st2">others and him have qui</text>
	<text transform="matrix(1 0 0 1 277.75 160.14)" class="st0 st1 st2">t</text>
	<text transform="matrix(1 0 0 1 281.42 160.14)" class="st0 st1 st2">e the s</text>
	<text transform="matrix(1 0 0 1 324.22 160.14)" class="st0 st1 st2">t</text>
	<text transform="matrix(1 0 0 1 327.89 160.14)" class="st0 st1 st2">ories </text>
	<text transform="matrix(1 0 0 1 361.8 160.14)" class="st0 st1 st2">t</text>
	<text transform="matrix(1 0 0 1 365.48 160.14)" class="st0 st1 st2">o </text>
	<text transform="matrix(1 0 0 1 377.7 160.14)" class="st0 st1 st2">t</text>
	<text transform="matrix(1 0 0 1 381.38 160.14)" class="st0 st1 st2">ell of their childhood.  He </text>
	<text transform="matrix(1 0 0 1 30.65 178.14)" class="st0 st1 st2">at</text>
	<text transform="matrix(1 0 0 1 42.03 178.14)" class="st0 st1 st2">t</text>
	<text transform="matrix(1 0 0 1 45.71 178.14)" class="st0 st1 st2">ended school and passed. During high school, he managed a local M</text>
	<text transform="matrix(1 0 0 1 481.75 178.14)" class="st0 st1 st2">e</text>
	<text transform="matrix(1 0 0 1 489.36 178.14)" class="st0 st1 st2">xican </text>
	<text transform="matrix(1 0 0 1 20.93 196.14)" class="st0 st1 st2">r</text>
	<text transform="matrix(1 0 0 1 24.92 196.14)" class="st0 st1 st2">estau</text>
	<text transform="matrix(1 0 0 1 59.09 196.14)" class="st0 st1 st2">r</text>
	<text transform="matrix(1 0 0 1 62.97 196.14)" class="st0 st1 st2">ant and made the best pota</text>
	<text transform="matrix(1 0 0 1 236.63 196.14)" class="st0 st1 st2">t</text>
	<text transform="matrix(1 0 0 1 240.31 196.14)" class="st0 st1 st2">o burri</text>
	<text transform="matrix(1 0 0 1 279.52 196.14)" class="st0 st1 st2">t</text>
	<text transform="matrix(1 0 0 1 283.19 196.14)" class="st0 st1 st2">o on ea</text>
	<text transform="matrix(1 0 0 1 330.71 196.14)" class="st0 st1 st2">r</text>
	<text transform="matrix(1 0 0 1 335.27 196.14)" class="st0 st1 st2">th. While in college he changed </text>
	<text transform="matrix(1 0 0 1 36.12 214.14)" class="st0 st1 st2">majors five times and eventually g</text>
	<text transform="matrix(1 0 0 1 244.85 214.14)" class="st0 st1 st2">r</text>
	<text transform="matrix(1 0 0 1 248.72 214.14)" class="st0 st1 st2">adua</text>
	<text transform="matrix(1 0 0 1 279.85 214.14)" class="st0 st1 st2">t</text>
	<text transform="matrix(1 0 0 1 283.52 214.14)" class="st0 st1 st2">ed with seve</text>
	<text transform="matrix(1 0 0 1 362.18 214.14)" class="st0 st1 st2">r</text>
	<text transform="matrix(1 0 0 1 366.05 214.14)" class="st0 st1 st2">al deg</text>
	<text transform="matrix(1 0 0 1 404.42 214.14)" class="st0 st1 st2">r</text>
	<text transform="matrix(1 0 0 1 408.41 214.14)" class="st0 st1 st2">ees including A</text>
	<text transform="matrix(1 0 0 1 503.52 214.14)" class="st0 st1 st2">r</text>
	<text transform="matrix(1 0 0 1 508.08 214.14)" class="st0 st1 st2">t, </text>
	<text transform="matrix(1 0 0 1 23.37 232.14)" class="st0 st1 st2">G</text>
	<text transform="matrix(1 0 0 1 34.49 232.14)" class="st0 st1 st2">r</text>
	<text transform="matrix(1 0 0 1 38.36 232.14)" class="st0 st1 st2">aphics, Elementa</text>
	<text transform="matrix(1 0 0 1 145.44 232.14)" class="st0 st1 st2">r</text>
	<text transform="matrix(1 0 0 1 149.88 232.14)" class="st0 st1 st2">y Education, and </text>
	<text transform="matrix(1 0 0 1 258.9 232.14)" class="st0 st1 st2 st3">T</text>
	<text transform="matrix(1 0 0 1 265.25 232.14)" class="st0 st1 st2">echnology in Education. He is the father of </text>
	<text transform="matrix(1 0 0 1 16.68 250.14)" class="st0 st1 st2">an est</text>
	<text transform="matrix(1 0 0 1 55.02 250.14)" class="st0 st1 st2">r</text>
	<text transform="matrix(1 0 0 1 59.01 250.14)" class="st0 st1 st2">ogen-rich family with four beautiful daugh</text>
	<text transform="matrix(1 0 0 1 313.4 250.14)" class="st0 st1 st2">t</text>
	<text transform="matrix(1 0 0 1 317.08 250.14)" class="st0 st1 st2">ers and a wife that strives </text>
	<text transform="matrix(1 0 0 1 479.38 250.14)" class="st0 st1 st2">t</text>
	<text transform="matrix(1 0 0 1 483.05 250.14)" class="st0 st1 st2">o put up </text>
	<text transform="matrix(1 0 0 1 34.1 268.14)" class="st0 st1 st2">with him. Af</text>
	<text transform="matrix(1 0 0 1 106.11 268.14)" class="st0 st1 st2">t</text>
	<text transform="matrix(1 0 0 1 109.79 268.14)" class="st0 st1 st2">er working in public education for 14 years, he made the fabulous </text>
	<text transform="matrix(1 0 0 1 100.07 286.14)" class="st0 st1 st2">choice </text>
	<text transform="matrix(1 0 0 1 145.96 286.14)" class="st0 st1 st2">t</text>
	<text transform="matrix(1 0 0 1 149.63 286.14)" class="st0 st1 st2">o join the </text>
	<text transform="matrix(1 0 0 1 210.53 286.14)" class="st0 st1 st2">D</text>
	<text transform="matrix(1 0 0 1 220.36 286.14)" class="st0 st1 st2">X</text>
	<text transform="matrix(1 0 0 1 228.7 286.14)" class="st0 st1 st2 st3">A</text>
	<text transform="matrix(1 0 0 1 236.42 286.14)" class="st0 st1 st2">T</text>
	<text transform="matrix(1 0 0 1 243.58 286.14)" class="st0 st1 st2">C family and hasn&apos;t been happie</text>
	<text transform="matrix(1 0 0 1 444.56 286.14)" class="st0 st1 st2">r</text>
	<text transform="matrix(1 0 0 1 448.01 286.14)" class="st0 st1 st2">.</text>
</g>
<g id="LINEDART">
	<rect x="1.5" y="1.5" class="st4" width="549.5" height="316.6"/>
	<line class="st4" x1="1.5" y1="118" x2="551" y2="118"/>
</g>
<g>
	<path class="st0" d="M33.2,67.3l-3.8,7.2v24.2H17V19.9h12.4V54h0.2l16-34.2H58L40.8,55.1L58,98.8H45.3L33.2,67.3z"/>
	<path class="st0" d="M76.1,53.1h17v11.3h-17v23.1h21.4v11.3H63.7V19.9h33.8v11.3H76.1V53.1z"/>
	<path class="st0" d="M123.7,84.2h0.2l9.4-64.4h11.4l-12.2,78.9H114l-12.2-78.9h12.5L123.7,84.2z"/>
	<path class="st0" d="M150.4,19.9h12.4v78.9h-12.4V19.9z"/>
	<path class="st0" d="M183.1,41.6h-0.2v57.1h-11.2V19.9h15.6l12.5,47.2h0.2V19.9h11v78.9h-12.7L183.1,41.6z"/>
	<path class="st0" d="M274.2,39.4v10.3c0,12.6-6.1,19.5-18.5,19.5h-5.9v29.6h-12.4V19.9h18.3C268.1,19.9,274.2,26.8,274.2,39.4z
		 M249.9,31.2v26.7h5.9c3.9,0,6.1-1.8,6.1-7.4V38.6c0-5.6-2.1-7.4-6.1-7.4H249.9z"/>
	<path class="st0" d="M292.4,54.9h16v11.3h-16v32.6H280V19.9h32.8v11.3h-20.4V54.9z"/>
	<path class="st0" d="M330.6,19.9v60.9c0,5.6,2.5,7.7,6.4,7.7s6.4-2,6.4-7.7V19.9h11.7V80c0,12.6-6.3,19.8-18.5,19.8
		s-18.5-7.2-18.5-19.8V19.9H330.6z"/>
	<path class="st0" d="M374.9,41.6h-0.2v57.1h-11.2V19.9H379l12.5,47.2h0.2V19.9h11v78.9h-12.7L374.9,41.6z"/>
	<path class="st0" d="M411.7,19.9h19.6c12.4,0,18.5,6.9,18.5,19.5v39.9c0,12.6-6.1,19.5-18.5,19.5h-19.6V19.9z M424.1,31.2v56.4h7
		c3.9,0,6.3-2,6.3-7.7v-41c0-5.6-2.4-7.7-6.3-7.7H424.1z"/>
	<path class="st0" d="M470.1,53.1h17v11.3h-17v23.1h21.4v11.3h-33.8V19.9h33.8v11.3h-21.4V53.1z"/>
	<path class="st0" d="M525.1,98.8c-0.7-2-1.1-3.3-1.1-9.7V76.7c0-7.3-2.5-10-8.1-10h-4.3v32.1h-12.4V19.9h18.7
		c12.8,0,18.4,6,18.4,18.1v6.2c0,8.1-2.6,13.3-8.1,15.9v0.2c6.2,2.6,8.2,8.5,8.2,16.7v12.2c0,3.8,0.1,6.7,1.4,9.6H525.1z
		 M511.6,31.2v24.2h4.8c4.6,0,7.4-2,7.4-8.3v-7.8c0-5.6-1.9-8.1-6.3-8.1H511.6z"/>
</g>
</svg>
