<?xml version="1.0" encoding="utf-8"?>
<!-- Generator: Adobe Illustrator 22.0.1, SVG Export Plug-In . SVG Version: 6.00 Build 0)  -->
<svg version="1.1" id="Layer_1" xmlns="http://www.w3.org/2000/svg" xmlns:xlink="http://www.w3.org/1999/xlink" x="0px" y="0px"
	 viewBox="0 0 840.6 324.6" style="enable-background:new 0 0 840.6 324.6;" xml:space="preserve">
<style type="text/css">
	.st0{display:none;}
	.st1{fill:none;}
	.st2{fill:#FFFFFF;}
	.st3{fill:#FFFEFF;}
	.st4{enable-background:new    ;}
	.st5{font-family:'HelveticaNeue-Thin';}
	.st6{font-size:14px;}
</style>
<rect x="-52" y="-23" class="st0" width="924" height="375"/>
<title>KEVIN-PFUNDER-DESKTOP</title>
<g id="LINEDART">
	<polygon class="st1" points="146.9,163.6 265,319.6 281.1,319.6 281.1,5 266.9,5 	"/>
	<polygon class="st1" points="145.9,163.3 265.6,5.1 222.1,5.1 123.8,134.9 145.6,163.5 123.8,192.3 220.2,319.6 263.7,319.6 
		145.6,163.6 	"/>
	<polygon class="st1" points="65.7,269.1 20.9,269.1 100.9,163.5 19.9,57.3 64.6,57.3 123.2,134.1 220.9,5 5,5 5,319.6 219,319.6 
		123.2,193.1 	"/>
	<rect x="286.1" y="5" class="st1" width="549.5" height="111.5"/>
	<rect x="286.1" y="121.5" class="st1" width="549.5" height="198.1"/>
	<path class="st2" d="M0,0v324.6h840.6V0H0z M281.1,319.6H265l2.6,3.4h-46l-0.1-0.2l-2.4-3.2H5V5h215.9l0.7-1h46l-0.7,1h14.2V319.6z
		 M835.6,319.6H286.1V121.5h549.5V319.6z M835.6,116.5H286.1V5h549.5V116.5z"/>
	<polygon class="st2" points="222.1,322 265.5,322 263.7,319.6 220.2,319.6 	"/>
	<polygon class="st2" points="123.8,134.9 102.1,163.6 123.8,192.3 145.6,163.5 	"/>
	<polygon class="st2" points="19.9,57.3 100.9,163.5 20.9,269.1 65.7,269.1 123.2,193.1 100.9,163.6 101.1,163.3 123.2,134.1 
		64.6,57.3 	"/>
	<path class="st3" d="M266.9,5l0.7-0.9h-46l-0.7,1l-97.7,129.1l-22.1,29.2l-0.2,0.3l22.3,29.5L219,319.6l2.4,3.2l0.1,0.2h46
		l-2.6-3.4l-118.1-156L266.9,5z M263.7,319.6l1.8,2.4H222l-1.8-2.4l-96.4-127.3l-21.7-28.7l21.7-28.7L222.1,5.1h43.5L145.9,163.3
		l-0.2,0.3L263.7,319.6z"/>
</g>
<g class="st4">
	<path class="st2" d="M318.6,69.8l-3.7,6.9v23.2h-11.9V24.4H315v32.7h0.2l15.3-32.7h11.9l-16.5,33.6l16.5,41.8h-12.2L318.6,69.8z"/>
	<path class="st2" d="M360.6,56.2h16.3V67h-16.3v22.1h20.5v10.8h-32.4V24.4h32.4v10.8h-20.5V56.2z"/>
	<path class="st2" d="M407.2,86h0.2l9-61.6h10.9l-11.6,75.5h-17.7l-11.6-75.5h12L407.2,86z"/>
	<path class="st2" d="M433.7,24.4h11.9v75.5h-11.9V24.4z"/>
	<path class="st2" d="M466,45.2h-0.2v54.7h-10.7V24.4H470l12,45.2h0.2V24.4h10.6v75.5h-12.2L466,45.2z"/>
	<path class="st2" d="M555,43.1v9.8c0,12.1-5.8,18.7-17.7,18.7h-5.6v28.4h-11.9V24.4h17.5C549.2,24.4,555,31,555,43.1z M531.8,35.2
		v25.6h5.6c3.8,0,5.8-1.7,5.8-7.1V42.3c0-5.4-2-7.1-5.8-7.1H531.8z"/>
	<path class="st2" d="M573.4,57.9h15.3v10.8h-15.3v31.2h-11.9V24.4h31.4v10.8h-19.5V57.9z"/>
	<path class="st2" d="M610.9,24.4v58.2c0,5.4,2.4,7.3,6.1,7.3c3.8,0,6.1-1.9,6.1-7.3V24.4h11.2v57.5c0,12.1-6,19-17.7,19
		s-17.7-6.9-17.7-19V24.4H610.9z"/>
	<path class="st2" d="M654.3,45.2h-0.2v54.7h-10.7V24.4h14.9l12,45.2h0.2V24.4H681v75.5h-12.2L654.3,45.2z"/>
	<path class="st2" d="M690.5,24.4h18.8c11.9,0,17.7,6.6,17.7,18.7v38.2c0,12.1-5.8,18.7-17.7,18.7h-18.8V24.4z M702.4,35.2v53.9h6.7
		c3.8,0,6-1.9,6-7.3V42.5c0-5.4-2.3-7.3-6-7.3H702.4z"/>
	<path class="st2" d="M747.4,56.2h16.3V67h-16.3v22.1h20.5v10.8h-32.4V24.4h32.4v10.8h-20.5V56.2z"/>
	<path class="st2" d="M801,99.9c-0.6-1.9-1.1-3.1-1.1-9.3V78.8c0-7-2.4-9.6-7.8-9.6H788v30.7h-11.9V24.4h17.9
		c12.3,0,17.6,5.7,17.6,17.4v5.9c0,7.8-2.5,12.7-7.8,15.2v0.2c5.9,2.5,7.9,8.1,7.9,16v11.6c0,3.7,0.1,6.4,1.3,9.2H801z M788,35.2
		v23.2h4.6c4.4,0,7.1-1.9,7.1-8V43c0-5.4-1.8-7.8-6-7.8H788z"/>
</g>
<rect x="302" y="137" class="st1" width="521" height="166"/>
<text transform="matrix(1 0 0 1 304.3633 146.9961)" class="st2 st5 st6">Pfunder was born and raised on a farm in Idaho Falls, the youngest of three children.  His </text>
<text transform="matrix(1 0 0 1 321.6633 163.7961)" class="st2 st5 st6">older brothers and him have quite the stories to tell of their childhood.  He attended </text>
<text transform="matrix(1 0 0 1 317.2633 180.5961)" class="st2 st5 st6">school and passed. During high school, he managed a local Mexican restaurant and </text>
<text transform="matrix(1 0 0 1 304.4633 197.3961)" class="st2 st5 st6">made the best potato burrito on earth. While in college he changed majors five times and </text>
<text transform="matrix(1 0 0 1 304.5633 214.1961)" class="st2 st5 st6">eventually graduated with several degrees including Art, Graphics, Elementary Education, </text>
<text transform="matrix(1 0 0 1 302.7633 230.9961)" class="st2 st5 st6">and Technology in Education. He is the father of an estrogen-rich family with four beautiful </text>
<text transform="matrix(1 0 0 1 306.8633 247.7961)" class="st2 st5 st6">daughters and a wife that strives to put up with him. After working in public education for </text>
<text transform="matrix(1 0 0 1 317.7633 264.5961)" class="st2 st5 st6">14 years, he made the fabulous choice to join the Dixie Technical College family and </text>
<text transform="matrix(1 0 0 1 502.8633 281.3961)" class="st2 st5 st6">hasn&apos;t been happier.</text>
<text transform="matrix(1 0 0 1 362.1655 -212.8203)" class="st2 st5" style="font-size:39.2132px;">HEADING: BEBAS NEUE</text>
<text transform="matrix(1 0 0 1 426.2655 -165.7203)" class="st2 st5" style="font-size:39.2132px;">BODY TEXT: ???</text>
<text transform="matrix(1 0 0 1 442.7655 -118.7203)" class="st2 st5" style="font-size:39.2132px;">TRACKING: 15</text>
</svg>
